<svg xmlns="http://www.w3.org/2000/svg" viewBox="0 0 936 947.23"><g id="Star"><path d="M604.73,424.08c-37.42,30.37-74.84,44.28-115,42.52-34.29-1.37-61.52-11.56-96.79-35.66-9-6.07-16.45-10.77-16.84-10.38-.2.39,5.87,9.21,13.71,19.59,16.65,22.33,28.21,45.06,34.29,68.18,3.72,14.3,4.31,19.79,3.33,39.18-1.57,34.29-11.17,59-35.27,91.69-4.11,5.88-7.25,11-6.66,11.36.39.59,7.84-4.11,16.26-10.19,16.85-12.14,36.44-21.94,54.66-27.42,15.67-4.71,50-4.71,67.59,0,19.4,5.09,49.77,21,71.32,37.42,10.77,8,19.78,14.3,20.18,13.91s-5.1-9.41-12.35-20c-48-70.72-47.21-132.63,2.75-207.08,16.65-24.88,16.65-24.88,14.69-24.69C619.82,412.52,612.57,417.81,604.73,424.08Z" transform="translate(-44.02 -38.13)" style="fill:#ff0f15"/></g><g id="Explosion1L"><path d="M208,326.52c-34.09,42.12-60.93,110.3-68,173-8.43,76.41,12.34,166.33,52.31,226.09,6.07,8.81,8.23,13.71,7.25,16.65-2.16,7.45-31.74,67.79-42.13,86C134.53,868.42,100.83,916,63.81,959.91,53,972.84,44,984.21,44,985.19s4.7-2.35,10.38-7.45C121.6,918.38,174.69,881,233.86,851.18c17.44-8.62,50.94-23.51,53.09-23.51.79,0,9.6,5.09,19.79,11.17C410,901.14,536.36,908,642.54,857.25c21-10,53.68-29.38,57.8-34.48,2.15-2.54-1.18-4.7-25.67-16.45-95.8-46-186.51-60.35-279-44.28C307.92,777.32,209,829.63,132.57,900.94c-19.59,18.22-25.86,23.12-25.86,19.79,0-.39,8.82-10.77,19.79-22.73,74.64-83.26,126.17-183.37,142.82-276.82,15.09-84.84,4.12-173-31.74-257.83C229,343,216.82,318.29,215.64,318.29,215.05,318.29,211.72,322,208,326.52Z" transform="translate(-44.02 -38.13)" style="fill:#ff0f15"/></g><g id="Explosion2R"><path d="M965.41,50.47c-88.55,82.29-181.61,143.8-275.26,181.62-11.36,4.7-11.36,4.7-20.57-.79q-69.06-39.08-153-46.43c-67-5.68-141.85,11.36-201,45.65-21.55,12.54-42.32,27.82-41.73,30.76,1.17,6.66,75.62,32.72,118.53,41.34,79.34,15.87,151,12.53,229-11,90.12-27,185.34-85.22,267.62-163.39,11.56-11,21.75-19.59,22.34-18.81.59.59-.2,2.75-1.77,4.51-25.66,30-33.5,39.57-45.25,55.44-73.86,99.33-122.84,200.23-141.26,290.35-7.83,38.4-9.6,60.73-8.42,106.19,1.37,59.16,9.21,99.52,31.15,157.91,10.58,28.21,14.11,36.24,17,38.2,2.35,1.37,20-22.34,34.29-46.24,58.58-98.15,63.67-228,12.93-331.88-5.29-10.77-11.56-22.92-13.91-26.84-4.31-7.25-4.31-7.25,3.13-25.47,10.58-25.86,37.82-81.11,52.31-106.38,31-53.29,77-120.29,115.2-167.51,8.62-10.58,14.7-19.59,12.93-19.59C979.13,38.13,972.66,43.62,965.41,50.47Z" transform="translate(-44.02 -38.13)" style="fill:#ff0f15"/></g></svg>